<svg version="1.0" xmlns="http://www.w3.org/2000/svg" width="933.333" height="480" viewBox="0 0 700 360"><path d="M344 60.7c-17.6 1.7-35.6 5.6-48.7 10.6-8.8 3.3-42.8 20.5-42 21.3.2.2 7.5-1.2 16.2-3.2 24.8-5.6 30.8-6.4 47-6.4 37.5 0 87.1 9.2 131 24.4 26.3 9 57.1 21.7 76.6 31.6 20.5 10.4 51.5 28.6 70.1 41.1 3.1 2.2 6.1 3.9 6.5 3.9.5 0 4.9-4.5 9.8-10.1 5-5.5 13.6-14.3 19.3-19.6 5.6-5.2 10.2-9.8 10.2-10.2 0-1.3-33.1-18.9-53.5-28.4-92-43.1-142.9-56.1-217.5-55.5-11.8 0-23.1.3-25 .5z"/><path d="M286 99.6c-81.3 9.7-165.9 52.1-231.7 116L41.5 228l7.5-4.3c4.1-2.4 19.6-11.6 34.3-20.6 75.3-45.5 113.1-60.8 163.7-66.6 18.7-2.2 63.8-1.6 80 .9 50.9 8.1 127.4 35.6 176.1 63.3 6.6 3.8 11.8 7.1 11.7 7.5-.5 1.2-36.7 29.9-47.3 37.5-10.4 7.3-40.5 24.6-53.7 30.6-10.5 4.9-23.1 8.8-52.2 16.2-13.6 3.5-25.1 6.7-25.5 7.1-.3.3 9.8.4 22.4.1 19.2-.4 25-.9 35-3 49.9-10.3 85.5-24.3 137.6-53.9 19.1-10.8 21-12.1 39.9-28.3l15.2-13-5.8-5.3c-12.1-11-36.3-25.7-71-43-53.4-26.7-105.3-44.1-158.7-53.2-14.3-2.4-46.3-2.6-64.7-.4z"/><path d="M280.9 147c-14.5 2.6-22.9 11.3-22.9 23.7 0 15.5 14.8 29.5 32.6 31 18 1.4 29.7-8.7 29.6-25.7 0-8.2-2.4-14-8.1-20.3-2.3-2.5-6.3-5.4-8.9-6.5-5.5-2.4-15.8-3.4-22.3-2.2z"/><path d="M185.6 170.5c3.2 14.5 12.3 29.8 23.7 40.1 18.9 17 48.8 28.9 83.7 33.4 22.6 2.9 55.3 2.1 73.9-1.6 27.1-5.5 65.4-20.5 83.6-32.6 5.7-3.9 15.5-12.6 15.5-13.8 0-.4-2.6-1.4-5.7-2.4-3.2-1-10.6-4-16.5-6.6-10.4-4.7-24-10-25.8-10-.4 0-2.9 2.9-5.5 6.5-8.1 11.4-20.6 20-43.9 30-24.8 10.8-39.8 13.9-67.6 13.9-22.2 0-31.6-1.3-49.2-7-28.5-9.2-50.6-25.9-64.2-48.4-2.3-3.9-2.6-4.1-2-1.5z"/></svg>