<svg version="1.0" xmlns="http://www.w3.org/2000/svg"
 width="700.000000pt" height="360.000000pt" viewBox="0 0 700.000000 360.000000"
 preserveAspectRatio="xMidYMid meet">

<g transform="translate(0.000000,360.000000) scale(0.100000,-0.100000)"
fill="#000000" stroke="none">
<path d="M3440 2993 c-176 -17 -356 -56 -487 -106 -88 -33 -428 -205 -420
-213 2 -2 75 12 162 32 248 56 308 64 470 64 375 0 871 -92 1310 -244 263 -90
571 -217 766 -316 205 -104 515 -286 701 -411 31 -22 61 -39 65 -39 5 0 49 45
98 101 50 55 136 143 193 196 56 52 102 98 102 102 0 13 -331 189 -535 284
-920 431 -1429 561 -2175 555 -118 0 -231 -3 -250 -5z"/>
<path d="M2860 2604 c-813 -97 -1659 -521 -2317 -1160 l-128 -124 75 43 c41
24 196 116 343 206 753 455 1131 608 1637 666 187 22 638 16 800 -9 509 -81
1274 -356 1761 -633 66 -38 118 -71 117 -75 -5 -12 -367 -299 -473 -375 -104
-73 -405 -246 -537 -306 -105 -49 -231 -88 -522 -162 -136 -35 -251 -67 -255
-71 -3 -3 98 -4 224 -1 192 4 250 9 350 30 499 103 855 243 1376 539 191 108
210 121 399 283 l152 130 -58 53 c-121 110 -363 257 -710 430 -534 267 -1053
441 -1587 532 -143 24 -463 26 -647 4z"/>
<path d="M2809 2130 c-145 -26 -229 -113 -229 -237 0 -155 148 -295 326 -310
180 -14 297 87 296 257 0 82 -24 140 -81 203 -23 25 -63 54 -89 65 -55 24
-158 34 -223 22z"/>
<path d="M1856 1895 c32 -145 123 -298 237 -401 189 -170 488 -289 837 -334
226 -29 553 -21 739 16 271 55 654 205 836 326 57 39 155 126 155 138 0 4 -26
14 -57 24 -32 10 -106 40 -165 66 -104 47 -240 100 -258 100 -4 0 -29 -29 -55
-65 -81 -114 -206 -200 -439 -300 -248 -108 -398 -139 -676 -139 -222 0 -316
13 -492 70 -285 92 -506 259 -642 484 -23 39 -26 41 -20 15z"/>
</g>
</svg>
