<svg version="1.0" xmlns="http://www.w3.org/2000/svg"
 width="900.000000pt" height="360.000000pt" viewBox="0 0 900.000000 360.000000"
 preserveAspectRatio="xMidYMid meet">

<g transform="translate(0.000000,360.000000) scale(0.100000,-0.100000)"
fill="#000000" stroke="none">
<path d="M5020 2724 c-19 -2 -96 -11 -170 -20 -74 -8 -223 -33 -330 -54 -352
-71 -610 -150 -1175 -360 -377 -141 -454 -166 -675 -219 -351 -84 -528 -96
-825 -55 -92 13 -354 60 -445 79 -37 8 139 -98 265 -160 228 -111 394 -149
655 -149 180 0 291 10 489 45 158 27 284 64 655 189 605 205 865 273 1246 325
177 25 563 30 743 11 199 -21 338 -46 344 -63 8 -22 -46 -182 -88 -262 -78
-145 -186 -255 -319 -325 -295 -155 -666 -131 -952 62 -120 81 -198 163 -272
286 -28 47 -36 55 -36 35 0 -52 32 -158 72 -239 34 -68 60 -103 133 -176 133
-135 267 -207 485 -262 97 -24 121 -26 320 -27 189 0 227 3 319 23 382 86 670
293 818 587 17 33 36 79 43 103 7 23 19 42 26 42 24 0 148 -71 219 -124 84
-65 182 -160 270 -263 l65 -76 -37 -51 c-89 -123 -261 -347 -316 -411 -34 -38
-165 -175 -291 -303 l-231 -233 70 26 c213 79 464 202 617 301 194 125 405
318 551 502 127 161 124 134 31 249 -181 224 -409 434 -624 576 -140 91 -396
216 -547 266 -139 45 -303 84 -455 107 -99 15 -565 28 -648 18z"/>
<path d="M3105 1622 c6 -5 85 -57 176 -115 431 -273 792 -452 1109 -550 303
-94 534 -140 1115 -222 l309 -44 66 57 c153 133 519 516 506 530 -2 1 -39 -6
-82 -17 -752 -188 -1656 -133 -2612 160 -154 47 -410 136 -542 189 -30 12 -50
17 -45 12z"/>
</g>
</svg>
